<svg xmlns="http://www.w3.org/2000/svg" viewBox="0 0 37.81 17.2"><defs><style>.cls-1{fill:#fff;}</style></defs><title>Asset 11</title><g id="Layer_2" data-name="Layer 2"><g id="Layer_1-2" data-name="Layer 1"><path class="cls-1" d="M0,11.45v.31A5.76,5.76,0,0,1,5.3,7.67h0a5.45,5.45,0,0,1,5.52,5.38,5.39,5.39,0,0,1-.16,1.39l14,.16a5.46,5.46,0,1,1,10.64-.16.31.31,0,0,0-.08.24,3.2,3.2,0,0,0,2.05-1.58A4.71,4.71,0,0,0,36.82,8a2.75,2.75,0,0,0-1.26-1C27.91,4,32.17,6.25,23.34.89A3.37,3.37,0,0,0,21.85.34,59.18,59.18,0,0,0,7.9.49a2.48,2.48,0,0,0-1.58.64A42.77,42.77,0,0,0,1.44,5.46C.33,6.64-.06,9.71,0,11.45ZM14,1.6h0a51,51,0,0,1,7.72.31,4,4,0,0,1,.87.32c1.65,1,2.91,1.81,3.86,2.36L13.89,4.51C13.1,2.54,13.89,1.68,14,1.6ZM8.06,4.43a6.92,6.92,0,0,1,2.44-2.6,15.1,15.1,0,0,1,1.65-.15,4.06,4.06,0,0,0,0,2.75ZM5.46,9.24a4,4,0,0,1,3.82,4.18c0,.13,0,.26,0,.39A3.9,3.9,0,0,1,5.38,17h0a3.85,3.85,0,0,1-3.86-3.5A3.9,3.9,0,0,1,5.06,9.26Zm28.29,4.89A3.88,3.88,0,0,1,30,17.2h0A4,4,0,0,1,26.18,14a3.87,3.87,0,0,1,7.6-1.44,3.92,3.92,0,0,1,0,1.6Z"/></g></g></svg>