<svg xmlns="http://www.w3.org/2000/svg" viewBox="0 0 44.54 19.96"><defs><style>.cls-1{fill:#fff;}</style></defs><title>Asset 12</title><g id="Layer_2" data-name="Layer 2"><g id="Layer_1-2" data-name="Layer 1"><path class="cls-1" d="M31,15.28a4.55,4.55,0,1,0,4.68-4.42h-.13A4.51,4.51,0,0,0,31,15.28Zm-27.38,0a4.5,4.5,0,0,0,4.55,4.43,4.43,4.43,0,1,0,.42-8.85H8.17A4.51,4.51,0,0,0,3.62,15.28ZM.09,12.49a4.16,4.16,0,0,0,1.67,2.88v-.09A6.34,6.34,0,0,1,8.17,9.06a6.33,6.33,0,0,1,6.41,6.22,2.79,2.79,0,0,1-.09.91H29.25a3.47,3.47,0,0,1-.09-.91,6.41,6.41,0,1,1,12.82,0,2.53,2.53,0,0,1-.1.91h.19a2.11,2.11,0,0,0,2-1.36c1.4-3.52-.09-7.76-8.45-8.93-1.58-.27-1.95-.63-8.45-4.51A3.87,3.87,0,0,0,25.82.85,48.8,48.8,0,0,0,7.71.85a3.4,3.4,0,0,0-1.95,1L1.49,6.17A4.1,4.1,0,0,0,.37,8.07,12,12,0,0,0,.09,12.49ZM20.06,2a52.12,52.12,0,0,1,5.29.72,1.55,1.55,0,0,1,.84.27l5.29,3.16-1.86.63a1,1,0,0,1-.55.09l-9-.36ZM10.4,6V2.29a57.82,57.82,0,0,1,7.89-.36v4.6l-7.7-.27A.29.29,0,0,1,10.31,6Z"/></g></g></svg>