<svg xmlns="http://www.w3.org/2000/svg" viewBox="0 0 109.39 44.51"><defs><style>.cls-1{fill:#fbfdff;}</style></defs><title>Asset 4</title><g id="Layer_2" data-name="Layer 2"><g id="Layer_1-2" data-name="Layer 1"><path id="Layer_2-2" data-name="Layer 2" class="cls-1" d="M20.3,24A10.25,10.25,0,1,1,10.05,34.26,10.25,10.25,0,0,1,20.3,24Zm68.34,0A10.25,10.25,0,1,1,78.39,34.26,10.25,10.25,0,0,1,88.64,24Zm20.5.23a13.43,13.43,0,0,0-1.82-4.78,6.38,6.38,0,0,0-4.1-3.19c-17.54-5.24-17.54-5-19.36-5.93L71.33,3.74C61.07-1.5,25.76-.36,14.15,1.91a8,8,0,0,0-5.7,3.88c-2.51,4.1-4.78,5.92-5.24,9.79a22.8,22.8,0,0,1-2,6.84c-.23.45-.23.68-.45,1.14A19,19,0,0,0,0,27.88a8.34,8.34,0,0,0,4.79,8c.22.23.45.23.68.45,0-.68-.23-1.36-.23-2a14.81,14.81,0,1,1,29.62,0,15.81,15.81,0,0,1-.46,3.42H74.29a17.16,17.16,0,0,1-.46-3.42,14.81,14.81,0,0,1,29.62,0,6.19,6.19,0,0,1-.23,2c.45-.22.91-.22,1.37-.45a6.7,6.7,0,0,0,3.64-3.42A14,14,0,0,0,109.14,24.24ZM25.76,11.39,10,11.16,12.1,8a4.54,4.54,0,0,1,3-1.82A75.64,75.64,0,0,1,25.8,4.81ZM51.28,16H34.88a3,3,0,0,1-2.28-1l-2.28-2.28V4.56c6.15-.23,13-.23,20.73.22V16Zm30.53-1.6a2.42,2.42,0,0,1-2.06,1.82H55.83V5.33c6.38.46,9.57.46,13.67,2.51l12.31,6.6Z"/></g></g></svg>