<svg xmlns="http://www.w3.org/2000/svg" viewBox="0 0 50 47.06"><defs><style>.cls-1{fill:#fcbb76;}</style></defs><title>Asset 4</title><g id="Layer_2" data-name="Layer 2"><g id="Layer_1-2" data-name="Layer 1"><g id="Layer_2-2" data-name="Layer 2"><g id="Layer_1-2-2" data-name="Layer 1-2"><path class="cls-1" d="M47.62,42.29h-.73V4.23A4.23,4.23,0,0,0,42.66,0H23.78a4.23,4.23,0,0,0-4.23,4.23h0V19.6H16.63A7.42,7.42,0,0,0,9.23,27v6.56a1.83,1.83,0,0,1-3.66.2V13.69l5.25-5.25A2.79,2.79,0,0,0,6.88,4.5L.82,10.57a2.75,2.75,0,0,0-.82,2v21a7.4,7.4,0,0,0,14.8,0V27a1.83,1.83,0,0,1,1.83-1.84h2.94V42.29h-.25a2.39,2.39,0,0,0,0,4.77h28.3a2.39,2.39,0,0,0,0-4.77ZM39.33,20,33.45,31.24a.91.91,0,0,1-1.22.39.89.89,0,0,1-.48-1L32.84,24l-4.68-.22H28a1.23,1.23,0,0,1-.89-.64,1.19,1.19,0,0,1,0-1.1L33,10.86a.92.92,0,0,1,1.26-.31.93.93,0,0,1,.44.82L33.6,18l4.68.22h.15a1.31,1.31,0,0,1,1,1.6,1.09,1.09,0,0,1-.05.17Z"/></g></g></g></g></svg>