<svg xmlns="http://www.w3.org/2000/svg" viewBox="0 0 41.04 41.42"><defs><style>.cls-1{fill:#fbfdff;}</style></defs><title>Asset 10</title><g id="Layer_2" data-name="Layer 2"><g id="Layer_1-2" data-name="Layer 1"><path class="cls-1" d="M38.08,0H3A3,3,0,0,0,0,3V38.46a3,3,0,0,0,3,3h18.9s0-.08,0-.11V25.59H16.71c-.23,0-.23,0-.23-.22,0-1.94,0-3.88,0-5.81,0-.18.06-.22.23-.22h5.16v-.19c0-1.61,0-3.22,0-4.83a8.86,8.86,0,0,1,.83-3.72,6.71,6.71,0,0,1,3.59-3.42,8.66,8.66,0,0,1,3.41-.65c1.34,0,2.69.08,4,.13.25,0,.5,0,.75.07s.19.06.19.2c0,.8,0,1.6,0,2.4s0,1.89,0,2.84c0,.16-.05.21-.21.21-1,0-2.05,0-3.07,0a7.12,7.12,0,0,0-1.38.16,1.93,1.93,0,0,0-1.57,1.64,5.55,5.55,0,0,0-.11,1.07c0,1.32,0,2.63,0,3.94,0,0,0,.08,0,.14H34.2c.25,0,.25,0,.22.24-.13,1-.27,2.06-.4,3.09-.11.86-.22,1.72-.32,2.59,0,.33,0,.33-.36.33h-5V41.42h9.76a3,3,0,0,0,3-3V3A3,3,0,0,0,38.08,0Z"/></g></g></svg>