<svg xmlns="http://www.w3.org/2000/svg" viewBox="0 0 42.38 42.38"><defs><style>.cls-1{fill:#fff;fill-rule:evenodd;}</style></defs><title>Asset 7</title><g id="Layer_2" data-name="Layer 2"><g id="Layer_1-2" data-name="Layer 1"><path class="cls-1" d="M40.56,0H1.82A1.81,1.81,0,0,0,0,1.82V40.56a1.81,1.81,0,0,0,1.82,1.82H40.56a1.81,1.81,0,0,0,1.82-1.82V1.82A1.81,1.81,0,0,0,40.56,0ZM25.65,23.31a9,9,0,0,1-2.29,5.34c-3.45,3.67-9.86,3.64-13.55-.07A9.67,9.67,0,0,1,9.9,15a9.52,9.52,0,0,1,10.17-2l1.41.69,1.46,1-2.51,2.48-.87-.59a5.84,5.84,0,0,0-7.15.89,6.35,6.35,0,0,0-.05,8.76,6,6,0,0,0,8.54,0,5.12,5.12,0,0,0,1.33-2.36l.06-.27H16.82v-3h8.75l.11.71Zm11.69-.11H34.59V26h-2.7V23.2H29.14V20.51h2.75V17.75h2.7v2.76h2.75Z"/></g></g></svg>