<svg xmlns="http://www.w3.org/2000/svg" viewBox="0 0 43.32 41.64"><defs><style>.cls-1{fill:#fbfdff;}</style></defs><title>Asset 2</title><g id="Layer_2" data-name="Layer 2"><g id="Layer_1-2" data-name="Layer 1"><path class="cls-1" d="M12.94,34.29H30.35A5.67,5.67,0,0,0,36,28.63V12.57a5.66,5.66,0,0,0-5.66-5.65H12.94a5.66,5.66,0,0,0-5.66,5.65V28.63A5.67,5.67,0,0,0,12.94,34.29ZM31.51,8.89A2.11,2.11,0,1,1,29.4,11,2.12,2.12,0,0,1,31.51,8.89Zm-9.73,1.55A10.3,10.3,0,0,1,32.2,20.58,10.3,10.3,0,0,1,21.78,30.72,10.29,10.29,0,0,1,11.36,20.58,10.29,10.29,0,0,1,21.78,10.44ZM28.2,20.58a6.29,6.29,0,0,1-6.42,6.14,6.29,6.29,0,0,1-6.42-6.14,6.29,6.29,0,0,1,6.42-6.14A6.29,6.29,0,0,1,28.2,20.58ZM37.56,0H5.77A5.77,5.77,0,0,0,0,5.77V35.88a5.76,5.76,0,0,0,5.77,5.76H37.56a5.76,5.76,0,0,0,5.76-5.76V5.77A5.76,5.76,0,0,0,37.56,0ZM40,28.63a9.67,9.67,0,0,1-9.66,9.66H12.94a9.67,9.67,0,0,1-9.66-9.66V12.57a9.66,9.66,0,0,1,9.66-9.65H30.35A9.66,9.66,0,0,1,40,12.57Z"/></g></g></svg>