<?xml version="1.0" encoding="UTF-8"?>
<!DOCTYPE svg PUBLIC "-//W3C//DTD SVG 1.1//EN" "http://www.w3.org/Graphics/SVG/1.1/DTD/svg11.dtd">
<!-- Creator: CorelDRAW X7 -->
<svg xmlns="http://www.w3.org/2000/svg" xml:space="preserve" width="48mm" height="26.6336mm" version="1.1" style="shape-rendering:geometricPrecision; text-rendering:geometricPrecision; image-rendering:optimizeQuality; fill-rule:evenodd; clip-rule:evenodd"
viewBox="0 0 1804 1001"
 xmlns:xlink="http://www.w3.org/1999/xlink">
 <defs>
  <style type="text/css">
   <![CDATA[
    .fil0 {fill:#97B691}
    .fil1 {fill:#FEFEFE;fill-rule:nonzero}
   ]]>
  </style>
 </defs>
 <g id="Layer_x0020_1">
  <metadata id="CorelCorpID_0Corel-Layer"/>
  <g id="_2655060382320">
   <path class="fil0" d="M246 386c-65,0 -117,53 -117,117 0,65 52,117 117,117 65,0 117,-52 117,-117 0,-64 -52,-117 -117,-117zm1442 -162l21 50 -49 20 -6 -12 -25 11 -28 70 149 -62 -11 -25 65 17 -33 58 -11 -24 -205 85 70 29 22 -9c2,-9 8,-18 17,-21 14,-6 29,0 35,14 6,14 -1,30 -14,36 -9,3 -19,2 -27,-4l-33 14 -106 -44 -34 14c1,17 -8,32 -23,40 -16,35 -86,56 -93,57 -7,2 -31,11 -31,-20 0,-32 -13,-156 -141,-155 -128,1 -143,125 -146,162 -4,36 -32,37 -32,37 0,0 -221,6 -396,10 -13,-25 -43,-68 -104,-91 11,-5 22,-11 33,-17 8,16 43,79 118,76 0,0 -12,-53 -81,-94 7,-3 14,-5 20,-8 9,14 45,64 102,66 0,0 -4,-40 -63,-83 5,-2 10,-4 15,-6 9,14 44,60 91,60 0,0 -16,-50 -57,-72 5,-2 10,-4 15,-6 5,11 25,51 84,54 0,0 -9,-46 -56,-64 6,-2 12,-4 17,-6 8,9 42,45 79,47 0,0 -2,-30 -48,-58l4 -1c3,-1 6,-2 9,-3 8,10 43,42 80,38 0,0 -5,-31 -51,-48l0 0c5,-2 11,-4 17,-7 6,8 33,38 72,30 0,0 -10,-30 -44,-42 4,-1 9,-3 13,-6 6,6 31,27 63,28 0,0 -1,-18 -44,-37l0 0c6,-2 12,-5 18,-8 4,5 23,23 58,19 0,0 -11,-19 -41,-28l2 -1c4,-2 8,-5 12,-7 4,5 19,20 50,14 0,0 -7,-19 -35,-24l0 0c4,-3 9,-6 13,-9 4,3 21,16 45,6 0,0 -13,-14 -33,-17l0 0c3,-2 5,-5 8,-7 3,3 18,14 35,5 0,0 -2,-8 -28,-13l0 0c3,-3 5,-5 7,-8 4,2 15,8 31,-1 0,0 -13,-5 -25,-5l0 0c3,-4 4,-6 4,-6 37,2 31,-36 26,-53 19,-3 36,-6 51,-9l-2 -135c0,0 -181,-8 -239,-1l-18 174c0,0 108,-13 197,-27 -94,89 -152,100 -330,88 -184,-12 -266,40 -266,40 -46,78 -4,175 -4,175 0,0 3,-2 9,-7 -5,-15 -34,-108 16,-159 0,0 47,10 28,132 7,-4 16,-8 26,-13 -7,-19 -30,-103 31,-144 0,0 43,28 13,126 10,-4 21,-8 32,-12 -6,-21 -25,-96 30,-124 0,0 30,31 4,113 8,-3 17,-5 25,-8 -4,-17 -16,-70 26,-105 0,0 32,34 6,96 4,-1 7,-2 10,-3 5,-1 9,-2 13,-3 -3,-14 -12,-68 20,-90 0,0 24,23 5,84 5,-2 11,-3 16,-5 -2,-12 -6,-62 23,-77 0,0 19,14 6,69 5,-2 10,-3 14,-4 -8,-49 22,-66 22,-66 15,17 8,49 6,57 4,-1 9,-3 13,-4 -4,-36 17,-55 17,-55 14,14 14,37 13,44 4,-1 8,-3 12,-4 -5,-32 12,-45 12,-45 8,7 9,30 9,36 5,-2 10,-4 14,-6 -12,-23 8,-38 8,-38 10,10 10,24 10,29 7,-3 13,-7 18,-10 -12,-13 -1,-30 -1,-30 11,4 16,16 17,21 4,-3 9,-6 13,-9 -12,-9 -4,-27 -4,-27 10,4 15,13 17,16 3,-2 5,-4 8,-7 -5,-9 -2,-24 -2,-24 9,5 12,11 13,13 2,-2 5,-5 6,-7 -2,-3 -6,-11 -3,-19 0,0 8,3 10,14l0 0c-33,51 -98,79 -131,94 -32,15 -105,35 -267,91 -139,48 -217,116 -236,134 -1,-6 -1,-11 -1,-11 -4,-61 -18,-172 -145,-173 -127,-1 -142,126 -142,169 1,42 -30,32 -30,32 -56,-21 -60,-93 -49,-143 2,-10 5,-25 10,-49 18,-86 101,-109 101,-109l289 -67c0,0 152,-112 230,-159 52,-31 167,-39 246,-38 77,1 158,-1 233,5 58,5 97,14 135,25 38,11 55,32 55,32 0,0 102,98 116,116 15,19 10,95 10,133 0,39 -1,51 9,70 4,9 7,17 8,28 4,2 7,4 10,7l90 -37 43 -106 36 -15 -5 -13 49 -21zm-493 162c-64,0 -117,53 -117,117 0,65 53,117 117,117 65,0 118,-52 118,-117 0,-64 -53,-117 -118,-117zm0 42c-42,0 -75,33 -75,75 0,42 33,76 75,76 42,0 76,-34 76,-76 0,-42 -34,-75 -76,-75zm-783 148l1 0c7,0 63,-1 139,-3 -45,-22 -62,-59 -66,-71 -10,7 -19,14 -26,20 0,0 -26,25 -48,54zm716 -538l4 129 111 -16c0,0 22,-4 32,-38 0,0 -73,-75 -147,-75zm-291 -4l-20 178c0,0 -270,19 -373,9 0,0 144,-115 220,-152 75,-37 173,-35 173,-35zm-591 394c-42,0 -76,33 -76,75 0,42 34,76 76,76 42,0 76,-34 76,-76 0,-42 -34,-75 -76,-75z"/>
   <path class="fil1" d="M70 701c12,0 21,2 27,8 5,6 8,14 8,24 0,9 -2,17 -8,22 -5,5 -14,8 -27,8l-50 0 0 7c0,4 2,8 4,11 2,2 7,4 12,4l64 0 0 20 -64 0c-6,0 -12,-1 -16,-3 -5,-1 -9,-4 -12,-7 -3,-3 -5,-7 -6,-11 -1,-4 -2,-8 -2,-13l0 -36c0,-5 1,-9 2,-14 1,-4 3,-7 6,-11 3,-3 7,-5 12,-7 4,-1 10,-2 16,-2l34 0zm-50 45l49 0c6,0 10,-1 12,-3 3,-2 4,-5 4,-9 0,-4 -1,-7 -4,-10 -2,-2 -6,-3 -11,-3l-34 0c-5,0 -10,1 -12,4 -2,3 -4,6 -4,10l0 11zm150 -91l0 150 -21 0 0 -150 21 0zm115 46c13,0 22,2 27,8 6,6 8,14 8,24 0,9 -2,17 -8,22 -5,5 -14,8 -27,8l-49 0 0 7c0,4 1,8 3,11 3,2 7,4 13,4l63 0 0 20 -63 0c-7,0 -13,-1 -17,-3 -5,-1 -8,-4 -11,-7 -3,-3 -5,-7 -7,-11 -1,-4 -2,-8 -2,-13l0 -36c0,-5 1,-9 2,-14 2,-4 4,-7 7,-11 3,-3 6,-5 11,-7 4,-1 10,-2 17,-2l33 0zm-49 45l49 0c5,0 9,-1 11,-3 3,-2 4,-5 4,-9 0,-4 -1,-7 -4,-10 -2,-2 -6,-3 -11,-3l-33 0c-6,0 -10,1 -13,4 -2,3 -3,6 -3,10l0 11zm222 -45l0 20 -52 0c-9,0 -16,2 -20,7 -4,5 -6,13 -6,25 0,11 2,19 6,24 4,5 11,8 20,8l52 0 0 20 -54 0c-14,0 -25,-4 -33,-13 -8,-8 -12,-22 -12,-39 0,-18 4,-31 12,-39 8,-9 19,-13 33,-13l54 0zm46 0l0 -25 21 0 0 25 29 0 0 20 -29 0 0 49c0,6 1,10 4,12 2,3 5,4 10,4l15 0 0 19 -19 0c-5,0 -10,-1 -14,-2 -4,-1 -7,-3 -9,-6 -3,-3 -5,-6 -6,-11 -1,-4 -2,-10 -2,-17l0 -48 -14 0 0 -20 14 0zm159 0l0 20 -37 0c-8,0 -13,4 -13,13l0 71 -21 0 0 -74c0,-10 2,-18 7,-23 4,-5 11,-7 21,-7l43 0zm59 0l0 104 -20 0 0 -104 20 0zm1 -40l0 25 -21 0 0 -25 21 0zm141 40l0 20 -52 0c-9,0 -15,2 -19,7 -5,5 -7,13 -7,25 0,11 2,19 7,24 4,5 10,8 19,8l52 0 0 20 -54 0c-13,0 -24,-4 -33,-13 -8,-8 -12,-22 -12,-39 0,-18 4,-31 12,-39 9,-9 20,-13 33,-13l54 0zm106 0l35 83c1,2 3,4 5,4 3,0 5,-2 6,-4l36 -83 22 0 -40 93c-2,5 -5,8 -9,10 -4,2 -9,3 -15,3 -6,0 -11,-1 -15,-3 -3,-2 -6,-5 -8,-10l-39 -93 22 0zm203 0c12,0 21,2 27,8 5,6 8,14 8,24 0,9 -3,17 -8,22 -5,5 -14,8 -27,8l-50 0 0 7c0,4 1,8 4,11 2,2 6,4 12,4l64 0 0 20 -64 0c-6,0 -12,-1 -16,-3 -5,-1 -9,-4 -12,-7 -3,-3 -5,-7 -6,-11 -1,-4 -2,-8 -2,-13l0 -36c0,-5 1,-9 2,-14 1,-4 3,-7 6,-11 3,-3 7,-5 12,-7 4,-1 10,-2 16,-2l34 0zm-50 45l49 0c6,0 10,-1 12,-3 2,-2 4,-5 4,-9 0,-4 -2,-7 -4,-10 -2,-2 -6,-3 -11,-3l-34 0c-6,0 -10,1 -12,4 -3,3 -4,6 -4,10l0 11zm150 -91l0 46 36 0c18,0 31,4 40,12 8,8 13,19 13,33l0 59 -21 0 0 -59c0,-8 -3,-14 -8,-18 -5,-5 -13,-7 -24,-7l-36 0 0 84 -21 0 0 -150 21 0zm157 46l0 104 -21 0 0 -104 21 0zm0 -40l0 25 -21 0 0 -25 21 0zm142 40l0 20 -52 0c-9,0 -16,2 -20,7 -4,5 -6,13 -6,25 0,11 2,19 6,24 4,5 11,8 20,8l52 0 0 20 -54 0c-14,0 -25,-4 -33,-13 -8,-8 -12,-22 -12,-39 0,-18 4,-31 12,-39 8,-9 19,-13 33,-13l54 0zm63 -46l0 150 -21 0 0 -150 21 0zm116 46c12,0 21,2 27,8 5,6 8,14 8,24 0,9 -3,17 -8,22 -5,5 -15,8 -27,8l-50 0 0 7c0,4 1,8 4,11 2,2 6,4 12,4l64 0 0 20 -64 0c-6,0 -12,-1 -17,-3 -4,-1 -8,-4 -11,-7 -3,-3 -5,-7 -6,-11 -2,-4 -2,-8 -2,-13l0 -36c0,-5 0,-9 2,-14 1,-4 3,-7 6,-11 3,-3 7,-5 11,-7 5,-1 11,-2 17,-2l34 0zm-50 45l49 0c6,0 10,-1 12,-3 2,-2 4,-5 4,-9 0,-4 -2,-7 -4,-10 -2,-2 -6,-3 -11,-3l-34 0c-6,0 -10,1 -12,4 -3,3 -4,6 -4,10l0 11zm-1678 106l0 45 37 0c17,0 31,4 39,12 9,8 13,19 13,34l0 58 -21 0 0 -58c0,-8 -2,-15 -7,-19 -5,-5 -13,-7 -24,-7l-37 0 0 84 -21 0 0 -149 21 0zm157 45l0 104 -20 0 0 -104 20 0zm1 -39l0 24 -21 0 0 -24 21 0zm118 39l0 20 -37 0c-9,0 -13,5 -13,13l0 71 -21 0 0 -74c0,-10 2,-18 6,-23 5,-5 12,-7 22,-7l43 0zm106 0c13,0 22,3 27,8 6,6 9,14 9,24 0,10 -3,17 -9,22 -5,5 -14,8 -27,8l-49 0 0 7c0,5 1,8 3,11 3,2 7,4 13,4l63 0 0 20 -63 0c-7,0 -13,-1 -17,-2 -5,-2 -8,-4 -11,-8 -3,-3 -5,-6 -7,-10 -1,-5 -2,-9 -2,-14l0 -36c0,-5 1,-9 2,-13 2,-5 4,-8 7,-11 3,-3 6,-6 11,-8 4,-1 10,-2 17,-2l33 0zm-49 46l49 0c5,0 9,-2 12,-4 2,-2 3,-5 3,-9 0,-4 -1,-7 -4,-9 -2,-3 -6,-4 -11,-4l-33 0c-6,0 -10,1 -13,4 -2,3 -3,6 -3,10l0 12zm247 -46c7,0 12,1 17,2 5,2 8,5 11,8 3,3 5,6 7,11 1,4 2,8 2,13l0 49c0,4 -1,7 -1,10 -1,3 -2,5 -3,6 -2,2 -4,3 -7,4 -3,1 -6,1 -11,1l-49 0c-12,0 -21,-3 -26,-8 -6,-6 -9,-14 -9,-24 0,-4 1,-9 2,-12 2,-4 4,-7 6,-10 3,-2 7,-4 11,-6 5,-1 10,-2 17,-2l49 0 0 -8c0,-4 -1,-7 -3,-10 -3,-3 -7,-4 -13,-4l-62 0 0 -20 62 0zm10 84c4,0 6,-2 6,-5l0 -20 -49 0c-6,0 -9,1 -12,3 -2,2 -3,5 -3,9 0,4 1,7 3,9 3,3 6,4 12,4l43 0zm132 -84c18,0 31,4 39,12 9,8 13,19 13,34l0 58 -21 0 0 -58c0,-9 -2,-15 -7,-19 -5,-5 -13,-7 -24,-7l-34 0c-2,0 -3,1 -3,3l0 81 -21 0 0 -88c0,-6 1,-10 3,-13 3,-2 6,-3 12,-3l43 0zm207 -45l0 105c0,15 -3,26 -10,33 -6,8 -16,11 -28,11l-29 0c-14,0 -25,-4 -33,-13 -8,-8 -12,-21 -12,-39 0,-18 4,-31 12,-39 8,-9 19,-13 33,-13l46 0 0 -45 21 0zm-45 129c9,0 15,-2 18,-6 4,-4 6,-10 6,-19l0 -39 -44 0c-9,0 -16,3 -20,8 -4,5 -6,13 -6,24 0,11 2,19 6,24 4,5 11,8 20,8l20 0zm149 -84l0 -25 21 0 0 25 29 0 0 20 -29 0 0 49c0,6 1,10 3,13 3,2 6,3 11,3l15 0 0 19 -19 0c-6,0 -10,0 -14,-2 -4,-1 -7,-3 -10,-6 -2,-2 -4,-6 -5,-11 -1,-4 -2,-10 -2,-17l0 -48 -14 0 0 -20 14 0zm150 0c14,0 25,4 33,13 8,8 12,22 12,39 0,18 -4,31 -12,39 -8,9 -19,13 -33,13l-22 0c-14,0 -25,-4 -33,-13 -8,-8 -12,-21 -12,-39 0,-18 4,-31 12,-39 8,-9 19,-13 33,-13l22 0zm-20 20c-9,0 -15,3 -20,8 -4,5 -6,13 -6,24 0,11 2,19 6,24 5,5 11,8 20,8l18 0c9,0 16,-3 20,-8 4,-5 6,-13 6,-24 0,-11 -2,-19 -6,-24 -4,-5 -11,-8 -20,-8l-18 0zm129 -20l0 62c0,7 2,12 6,16 5,4 11,6 19,6l17 0c9,0 15,-2 19,-6 5,-4 7,-9 7,-16l0 -62 20 0 0 63c0,6 0,12 -2,17 -2,5 -5,9 -9,13 -4,3 -9,6 -14,8 -6,2 -12,3 -20,3l-19 0c-8,0 -14,-1 -20,-3 -5,-2 -10,-5 -14,-8 -4,-4 -7,-8 -8,-13 -2,-5 -3,-11 -3,-17l0 -63 21 0zm207 0l0 20 -37 0c-9,0 -14,5 -14,13l0 71 -21 0 0 -74c0,-10 3,-18 7,-23 4,-5 11,-7 22,-7l43 0z"/>
  </g>
 </g>
</svg>
