<svg xmlns="http://www.w3.org/2000/svg" viewBox="0 0 249.97 53.83"><defs><style>.cls-1{fill:#718a6c;}.cls-2{fill:#94b48f;}.cls-3{fill:#fbfdff;}</style></defs><title>logoDark_1</title><g id="Layer_2" data-name="Layer 2"><g id="Layer_1-2" data-name="Layer 1"><circle class="cls-1" cx="26.92" cy="26.92" r="26.92"/><path class="cls-2" d="M38.56,13.37,41,17,19.19,30.89l2.49-11.81,3.64-2.43,1.28,1.73,7.18-4.5L29.09,6.57l-7.15,4.66,1.14,1.91L17.82,16.5,14,34.4,3.87,40.77a26.94,26.94,0,0,0,2.5,3.51l1.65-1,17.93,4,4.82-3.11A4.69,4.69,0,0,0,35.14,44,4.49,4.49,0,0,0,36.36,38a4.17,4.17,0,0,0-5.91-1.24,4.47,4.47,0,0,0-2.1,3.78l-3.23,2L13.28,39.88l30-19.05,2.39,3.49,3.61-10.06Z"/><path class="cls-3" d="M70.56,11.76a4.49,4.49,0,0,1,3.28,1,3.93,3.93,0,0,1,1,2.89,3.58,3.58,0,0,1-1,2.71,4.7,4.7,0,0,1-3.33,1H64.47v.92a1.8,1.8,0,0,0,.45,1.26,2,2,0,0,0,1.51.5h7.8v2.49h-7.8a5.75,5.75,0,0,1-2-.32A3.6,3.6,0,0,1,63,23.31,3.37,3.37,0,0,1,62.23,22,5.5,5.5,0,0,1,62,20.3V16a5.62,5.62,0,0,1,.24-1.67A3.41,3.41,0,0,1,63,13a3.6,3.6,0,0,1,1.38-.88,5.76,5.76,0,0,1,2-.31Zm-6.09,5.57h6a2,2,0,0,0,1.46-.41,1.47,1.47,0,0,0,.42-1.11,1.57,1.57,0,0,0-.43-1.16,1.89,1.89,0,0,0-1.38-.43h-4.1a1.92,1.92,0,0,0-1.51.51A1.79,1.79,0,0,0,64.47,16Z"/><path class="cls-3" d="M80.55,6.23V24.51H78V6.23Z"/><path class="cls-3" d="M92.53,11.76a4.47,4.47,0,0,1,3.28,1,3.93,3.93,0,0,1,1,2.89,3.58,3.58,0,0,1-1,2.71,4.71,4.71,0,0,1-3.34,1H86.44v.92a1.8,1.8,0,0,0,.45,1.26,2,2,0,0,0,1.51.5h7.8v2.49H88.4a5.78,5.78,0,0,1-2-.32A3.68,3.68,0,0,1,85,23.31,3.37,3.37,0,0,1,84.2,22,5.5,5.5,0,0,1,84,20.3V16a5.62,5.62,0,0,1,.24-1.67A3.41,3.41,0,0,1,85,13a3.68,3.68,0,0,1,1.38-.88,5.8,5.8,0,0,1,2-.31Zm-6.09,5.57h6a2,2,0,0,0,1.46-.41,1.48,1.48,0,0,0,.43-1.11,1.58,1.58,0,0,0-.44-1.16,1.89,1.89,0,0,0-1.38-.43H88.4a1.92,1.92,0,0,0-1.51.51A1.79,1.79,0,0,0,86.44,16Z"/><path class="cls-3" d="M111.46,11.76v2.46h-6.33a3,3,0,0,0-2.42.92,4.66,4.66,0,0,0-.77,3,4.59,4.59,0,0,0,.77,3,3,3,0,0,0,2.42.91h6.33v2.49h-6.57a5.31,5.31,0,0,1-4-1.57,6.79,6.79,0,0,1-1.49-4.81,6.75,6.75,0,0,1,1.49-4.8,5.27,5.27,0,0,1,4-1.57Z"/><path class="cls-3" d="M115,11.76v-3h2.58v3h3.53v2.46h-3.53v6a2.11,2.11,0,0,0,.4,1.49,1.76,1.76,0,0,0,1.32.41H121v2.35h-2.29a6.12,6.12,0,0,1-1.71-.22,2.62,2.62,0,0,1-1.17-.73,3.12,3.12,0,0,1-.67-1.35,8.29,8.29,0,0,1-.22-2.1V14.22h-1.74V11.76Z"/><path class="cls-3" d="M132.22,11.76v2.46h-4.49a1.45,1.45,0,0,0-1.64,1.64v8.65h-2.56v-9a4.2,4.2,0,0,1,.79-2.83,3.41,3.41,0,0,1,2.66-.89Z"/><path class="cls-3" d="M137.32,7v3h-2.59V7Zm0,4.81V24.51h-2.56V11.76Z"/><path class="cls-3" d="M152.46,11.76v2.46h-6.33a3,3,0,0,0-2.43.92,4.73,4.73,0,0,0-.76,3,4.66,4.66,0,0,0,.76,3,3,3,0,0,0,2.43.91h6.33v2.49h-6.57a5.33,5.33,0,0,1-4-1.57,6.79,6.79,0,0,1-1.48-4.81,6.75,6.75,0,0,1,1.48-4.8,5.3,5.3,0,0,1,4-1.57Z"/><path class="cls-3" d="M163.27,11.76,167.52,22a.61.61,0,0,0,.63.39.67.67,0,0,0,.68-.39l4.41-10.23H176l-4.93,11.37A2.58,2.58,0,0,1,170,24.42a3.87,3.87,0,0,1-1.8.38,3.75,3.75,0,0,1-1.82-.39,2.39,2.39,0,0,1-1.08-1.28l-4.68-11.37Z"/><path class="cls-3" d="M185.87,11.76a4.47,4.47,0,0,1,3.28,1,3.93,3.93,0,0,1,1,2.89,3.58,3.58,0,0,1-1,2.71,4.7,4.7,0,0,1-3.33,1h-6.06v.92a1.84,1.84,0,0,0,.44,1.26,2,2,0,0,0,1.51.5h7.8v2.49h-7.8a5.82,5.82,0,0,1-2-.32,3.64,3.64,0,0,1-1.37-.88,3.28,3.28,0,0,1-.79-1.33,5.5,5.5,0,0,1-.24-1.68V16a5.62,5.62,0,0,1,.24-1.67,3.31,3.31,0,0,1,.79-1.34,3.64,3.64,0,0,1,1.37-.88,5.84,5.84,0,0,1,2-.31Zm-6.08,5.57h6a2.06,2.06,0,0,0,1.46-.41,1.47,1.47,0,0,0,.42-1.11,1.58,1.58,0,0,0-.44-1.16,1.86,1.86,0,0,0-1.37-.43h-4.11a1.92,1.92,0,0,0-1.51.51,1.83,1.83,0,0,0-.44,1.25Z"/><path class="cls-3" d="M195.87,6.23v5.53h4.49a6.94,6.94,0,0,1,4.83,1.47,5.31,5.31,0,0,1,1.59,4.1v7.18H204.2V17.33a2.92,2.92,0,0,0-.92-2.29,4.3,4.3,0,0,0-2.92-.82h-4.49V24.51h-2.56V6.23Z"/><path class="cls-3" d="M213,7v3h-2.58V7Zm0,4.81V24.51h-2.56V11.76Z"/><path class="cls-3" d="M228.1,11.76v2.46h-6.33a3,3,0,0,0-2.42.92,4.67,4.67,0,0,0-.76,3,4.6,4.6,0,0,0,.76,3,3,3,0,0,0,2.42.91h6.33v2.49h-6.57a5.32,5.32,0,0,1-4-1.57A6.79,6.79,0,0,1,216,18.13a6.75,6.75,0,0,1,1.49-4.8,5.29,5.29,0,0,1,4-1.57Z"/><path class="cls-3" d="M233.7,6.23V24.51h-2.56V6.23Z"/><path class="cls-3" d="M245.68,11.76a4.49,4.49,0,0,1,3.28,1,3.93,3.93,0,0,1,1,2.89,3.61,3.61,0,0,1-1,2.71,4.74,4.74,0,0,1-3.34,1h-6.06v.92a1.8,1.8,0,0,0,.45,1.26,2,2,0,0,0,1.51.5h7.8v2.49h-7.8a5.75,5.75,0,0,1-2-.32,3.6,3.6,0,0,1-1.38-.88,3.37,3.37,0,0,1-.78-1.33,5.5,5.5,0,0,1-.24-1.68V16a5.62,5.62,0,0,1,.24-1.67,3.41,3.41,0,0,1,.78-1.34,3.6,3.6,0,0,1,1.38-.88,5.76,5.76,0,0,1,2-.31Zm-6.09,5.57h6a2,2,0,0,0,1.46-.41,1.47,1.47,0,0,0,.42-1.11,1.57,1.57,0,0,0-.43-1.16,1.89,1.89,0,0,0-1.38-.43h-4.1a1.92,1.92,0,0,0-1.51.51,1.79,1.79,0,0,0-.45,1.25Z"/><path class="cls-3" d="M64.81,28.23v5.53H69.3a6.91,6.91,0,0,1,4.83,1.47,5.31,5.31,0,0,1,1.59,4.1v7.18H73.14V39.33A2.92,2.92,0,0,0,72.22,37a4.28,4.28,0,0,0-2.92-.82H64.81V46.51H62.25V28.23Z"/><path class="cls-3" d="M81.9,29v3H79.32V29Zm0,4.81V46.51H79.32V33.76Z"/><path class="cls-3" d="M94.22,33.76v2.46H89.73a1.45,1.45,0,0,0-1.64,1.64v8.65H85.53v-9a4.25,4.25,0,0,1,.78-2.83A3.42,3.42,0,0,1,89,33.76Z"/><path class="cls-3" d="M105,33.76a4.49,4.49,0,0,1,3.28,1,3.93,3.93,0,0,1,1,2.89,3.58,3.58,0,0,1-1,2.71,4.7,4.7,0,0,1-3.33,1H99v.92a1.8,1.8,0,0,0,.45,1.26,2,2,0,0,0,1.51.5h7.8v2.49h-7.8a5.75,5.75,0,0,1-2-.32,3.6,3.6,0,0,1-1.38-.88A3.37,3.37,0,0,1,96.71,44a5.2,5.2,0,0,1-.25-1.68V38a5.31,5.31,0,0,1,.25-1.67A3.41,3.41,0,0,1,97.49,35a3.6,3.6,0,0,1,1.38-.88,5.76,5.76,0,0,1,2-.31ZM99,39.33h6a2,2,0,0,0,1.46-.41,1.47,1.47,0,0,0,.42-1.11,1.57,1.57,0,0,0-.43-1.16,1.89,1.89,0,0,0-1.38-.43h-4.1a1.92,1.92,0,0,0-1.51.51A1.79,1.79,0,0,0,99,38Z"/><path class="cls-3" d="M127.08,33.76a5.86,5.86,0,0,1,2,.31,3.72,3.72,0,0,1,1.39.88,3.41,3.41,0,0,1,.78,1.34,5.62,5.62,0,0,1,.24,1.67v6a5,5,0,0,1-.11,1.18,1.53,1.53,0,0,1-.4.78,1.68,1.68,0,0,1-.8.45,4.89,4.89,0,0,1-1.32.15h-6a4.42,4.42,0,0,1-3.28-1,4,4,0,0,1-1-2.85,4.91,4.91,0,0,1,.23-1.55,2.66,2.66,0,0,1,.74-1.14A3.33,3.33,0,0,1,121,39.2a6.77,6.77,0,0,1,2-.25H129V38a1.79,1.79,0,0,0-.45-1.25,1.91,1.91,0,0,0-1.51-.51h-7.62V33.76ZM128.31,44c.47,0,.7-.22.7-.65V41h-6a2.07,2.07,0,0,0-1.43.39,1.49,1.49,0,0,0-.41,1.1,1.58,1.58,0,0,0,.41,1.13A1.9,1.9,0,0,0,123,44Z"/><path class="cls-3" d="M142.19,33.76A6.93,6.93,0,0,1,147,35.22a5.32,5.32,0,0,1,1.58,4.11v7.18H146V39.33a2.92,2.92,0,0,0-.9-2.31,4.36,4.36,0,0,0-2.94-.8H138c-.21,0-.32.12-.32.36v9.93h-2.56V35.74a2.26,2.26,0,0,1,.41-1.56,1.9,1.9,0,0,1,1.38-.42Z"/><path class="cls-3" d="M165.35,28.23V41.05a6.05,6.05,0,0,1-1.2,4.12,4.43,4.43,0,0,1-3.49,1.34h-3.52a5.33,5.33,0,0,1-4-1.57,6.84,6.84,0,0,1-1.48-4.81,6.79,6.79,0,0,1,1.48-4.8,5.3,5.3,0,0,1,4-1.57h5.62V28.23ZM159.92,44a2.79,2.79,0,0,0,2.19-.73,3.45,3.45,0,0,0,.65-2.36V36.22h-5.38a3,3,0,0,0-2.43.92,4.73,4.73,0,0,0-.76,3,4.66,4.66,0,0,0,.76,3,3,3,0,0,0,2.43.91Z"/><path class="cls-3" d="M175.9,33.76v-3h2.58v3H182v2.46h-3.53v6a2.16,2.16,0,0,0,.4,1.49,1.77,1.77,0,0,0,1.32.41H182v2.35h-2.29a6.12,6.12,0,0,1-1.71-.22,2.62,2.62,0,0,1-1.17-.73,3.12,3.12,0,0,1-.67-1.35,8.29,8.29,0,0,1-.22-2.1V36.22h-1.74V33.76Z"/><path class="cls-3" d="M192.1,33.76a5.27,5.27,0,0,1,4,1.58,6.73,6.73,0,0,1,1.5,4.79,6.75,6.75,0,0,1-1.5,4.81,5.33,5.33,0,0,1-4,1.57h-2.68a5.31,5.31,0,0,1-4-1.57,6.79,6.79,0,0,1-1.49-4.81,6.75,6.75,0,0,1,1.49-4.8,5.27,5.27,0,0,1,4-1.57Zm-2.44,2.46a3,3,0,0,0-2.42.92,4.67,4.67,0,0,0-.76,3,4.6,4.6,0,0,0,.76,3,3,3,0,0,0,2.42.91h2.2a3,3,0,0,0,2.43-.91,4.66,4.66,0,0,0,.76-3,4.73,4.73,0,0,0-.76-3,3,3,0,0,0-2.43-.92Z"/><path class="cls-3" d="M203.21,33.76v7.63a2.46,2.46,0,0,0,.81,1.88,3.28,3.28,0,0,0,2.33.75h2.07a3.25,3.25,0,0,0,2.32-.75,2.49,2.49,0,0,0,.8-1.88V33.76h2.51v7.72a5.73,5.73,0,0,1-.35,2,4.38,4.38,0,0,1-1,1.58,4.82,4.82,0,0,1-1.73,1,7,7,0,0,1-2.4.38h-2.37a7,7,0,0,1-2.4-.38,4.91,4.91,0,0,1-1.73-1A4.38,4.38,0,0,1,201,43.51a5.73,5.73,0,0,1-.35-2V33.76Z"/><path class="cls-3" d="M226.31,33.76v2.46h-4.49a1.45,1.45,0,0,0-1.64,1.64v8.65h-2.56v-9a4.2,4.2,0,0,1,.79-2.83,3.41,3.41,0,0,1,2.66-.89Z"/></g></g></svg>