<svg xmlns="http://www.w3.org/2000/svg" viewBox="0 0 257.73 53.83"><defs><style>.cls-1{fill:#718a6c;}.cls-2{fill:#94b48f;}.cls-3{font-size:24.14px;fill:#fbfdff;font-family:NasalizationRg-Regular, Nasalization;}.cls-4{letter-spacing:-0.03em;}</style></defs><title>logoDark_1</title><g id="Layer_2" data-name="Layer 2"><g id="Layer_1-2" data-name="Layer 1"><circle class="cls-1" cx="26.92" cy="26.92" r="26.92"/><path class="cls-2" d="M38.56,13.37,41,17,19.19,30.89l2.49-11.81,3.64-2.43,1.28,1.73,7.18-4.5L29.09,6.57l-7.15,4.66,1.14,1.91L17.82,16.5,14,34.4,3.87,40.77a26.94,26.94,0,0,0,2.5,3.51l1.65-1,17.93,4,4.82-3.11A4.69,4.69,0,0,0,35.14,44,4.49,4.49,0,0,0,36.36,38a4.17,4.17,0,0,0-5.91-1.24,4.47,4.47,0,0,0-2.1,3.78l-3.23,2L13.28,39.88l30-19.05,2.39,3.49,3.61-10.06Z"/><text class="cls-3" transform="translate(60.42 24.51)">electric <tspan class="cls-4" x="99.69" y="0">v</tspan><tspan x="115.31" y="0">ehicle </tspan><tspan x="0" y="22">hire and tour</tspan></text></g></g></svg>