<svg xmlns="http://www.w3.org/2000/svg" viewBox="0 0 49.4 35.85"><defs><style>.cls-1{fill:#fbfeff;}</style></defs><title>Asset 5</title><g id="Layer_2" data-name="Layer 2"><g id="Layer_1-2" data-name="Layer 1"><path class="cls-1" d="M30.8,27.5a1,1,0,0,1-1,.88H24.31a1,1,0,0,1-.74-.31,1,1,0,0,1-.29-.74,10.7,10.7,0,0,0-2.83-6.91c-2.1-2.13-5.22-3.21-9.29-3.21a1,1,0,0,1-.67-.24L.38,8.37A1,1,0,0,1,.07,7.23a1,1,0,0,1,1-.67H9.61a1.07,1.07,0,0,1,.66.24L13.5,9.54H28.83a15.17,15.17,0,0,1,6.22-4L28.54,1.93A1,1,0,0,1,28.11.59l0-.06A1,1,0,0,1,29.49.12l.05,0,8.33,4.63a24.27,24.27,0,0,1,4.89-.47,1.13,1.13,0,0,1,.59.18c5.4,3.79,7.2,7.48,5.34,11A1,1,0,0,1,47.6,16c-.07,0-6.86-1.2-11.79,2.34C33.07,20.27,31.38,23.37,30.8,27.5ZM12.4,19.75h0a8.05,8.05,0,1,0,8.1,8A8.05,8.05,0,0,0,12.36,19.75Zm28.93,0h0a8.05,8.05,0,1,0,8.1,8A8.05,8.05,0,0,0,41.29,19.75Z"/></g></g></svg>