<svg xmlns="http://www.w3.org/2000/svg" viewBox="0 0 222.21 49.86"><defs><style>.cls-1{fill:#fbfdff;}</style></defs><title>Asset 1</title><g id="Layer_2" data-name="Layer 2"><g id="Layer_1-2" data-name="Layer 1"><path class="cls-1" d="M104.24,14.29l-.9.53.15,1.63-1.12.6-.15-.82-1.42.08-.67,1.56.45.67-1.34,3.05-2.31,3.8-1.49.82-.53-.67-1.19.07-.38-.82,1.72-3.35-.74-1.34-3-1.41-.07-1.12,2-1.56L94,13.4l.22-2.53L89.32,3.5V2.75L87.53.82,88.8,0l1.34,2.08L91.86,2,94.24,4.1l.67,2.53L94.61,8l1,1.56L96,9.23l-.15-1.71,1.5-.15,1.19,3.5,2.08.74,3.07-1.71L104.91,11l-.38,1.56ZM82.83,44l1-.3v-1l1.2-2.83,1-3.2,1.49-1.12,1.57.3.67-.22.23-.75-.9-1.11.22-.6,1.5-1.86L91.11,30l.82-.44,1-2.24-.22-.59.15-.82-.15-.3.15-.89-1.12-.52L90,25.46l-.08-.14.16-.9-.53-.3-.44.15L89,24.05l.22-.52.23-.37-.23-.45-2,1.56-.9,3.2-1.26.75-.68,3.05L79,36.48,77.23,37l-2.46,3.5-1.64,3.8,1,1.27L76,45.12l.45.67h1l.07.67,1.87.07,1.79-1Zm-6.34,2.75L75.7,47l.24,1-1.18,1.61.42.25,2.54-.65.4-1.05-.32-.31ZM4.4,46H14.53V.6H9.24L5.81,4H0V13H4.4Zm28-35.54a1.62,1.62,0,0,0-1.58-1.78h-.71a1.62,1.62,0,0,0-1.58,1.78V36.14a1.62,1.62,0,0,0,1.58,1.78h.71a1.62,1.62,0,0,0,1.58-1.78ZM36.14.6,42.54,7V39.64L36.14,46H24.81l-6.41-6.4V7L24.81.6ZM56.55,36.14a1.63,1.63,0,0,0,1.58,1.78h.71a1.63,1.63,0,0,0,1.59-1.78V10.5a1.63,1.63,0,0,0-1.59-1.78h-.71a1.63,1.63,0,0,0-1.58,1.78ZM52.83,46l-6.41-6.4V7L52.83.6H64.15L70.56,7V39.64L64.15,46ZM134,10.36a1.51,1.51,0,0,0-1.58-1.64h-2.07V21.83h2.07A1.52,1.52,0,0,0,134,20.18ZM137.82.6l6.34,6.33V23.62L137.82,30h-7.43V46H120.26V.6Zm9.51,0v39l6.41,6.4h11.33l6.4-6.4V.6H161.34V36.14a1.63,1.63,0,0,1-1.58,1.78H159a1.62,1.62,0,0,1-1.57-1.78V.6Zm41.8,9.76a1.51,1.51,0,0,0-1.58-1.64h-2.07V20h2.07a1.51,1.51,0,0,0,1.58-1.65Zm10.12,9.31-4.47,4.47,4.47,4.47V41.05l.53,5H189.65l-.53-4.39V30.26a1.52,1.52,0,0,0-1.58-1.65h-2.06V46H175.35V.6h17.56l6.34,6.33ZM203.09,46h19.12V37.33h-9V27.42h8.24V18.7h-8.24V9.31h9V.6H203.09ZM77.46.59h6.26l3.73,3.73v12L83.72,20H77.46L73.73,16.3v-12Zm2,12.74c0,1,.38,1.56,1.12,1.56s1.12-.6,1.12-1.56v-6c0-1-.38-1.57-1.12-1.57s-1.12.6-1.12,1.57ZM104.91,46H98.64l-3.73-3.72v-12l3.73-3.72h6.27l3.73,3.72v12Zm-2-12.73c0-1-.37-1.56-1.11-1.56s-1.12.59-1.12,1.56v6c0,1,.37,1.56,1.12,1.56s1.11-.59,1.11-1.56Z"/></g></g></svg>