<svg xmlns="http://www.w3.org/2000/svg" viewBox="0 0 62.1 56.8"><defs><style>.cls-1{fill:#fbfdff;}</style></defs><title>Asset 17</title><g id="Layer_2" data-name="Layer 2"><g id="Layer_1-2" data-name="Layer 1"><path class="cls-1" d="M33.9,36a3,3,0,0,1-.8,2.1,3.25,3.25,0,0,1-2.1.8h0a2.86,2.86,0,0,1-2.8-2.8A2.8,2.8,0,0,1,31,33.3,2.87,2.87,0,0,1,33.9,36ZM23,18.1c1,.1,2,.2,3.1.4a4,4,0,0,1,.5.1c.6,0,.7-.4.8-.9A3.52,3.52,0,0,1,30.9,15a3.14,3.14,0,0,1,2.9,1.6,2.37,2.37,0,0,1-.5,2.7,7.93,7.93,0,0,1-1.9,1.8,7.87,7.87,0,0,0-2.5,2.6,14.77,14.77,0,0,0-.7,5.6c0,.5.2.7.7.7h3.6a.87.87,0,0,0,.6-.2,1,1,0,0,0,.2-.7,22.52,22.52,0,0,1,.1-2.6,3.53,3.53,0,0,1,1.4-2.2l.2-.2c.2-.2.4-.3.6-.5,1.9-1.6,4-3.5,4-6.2a6.84,6.84,0,0,0-2.4-5A9.31,9.31,0,0,0,31,10.3c-4.1,0-8.5,2.4-8.9,6.9A1.06,1.06,0,0,0,23,18.1ZM62.1,0V34.1A13.83,13.83,0,0,1,48.3,47.9H12.6l-7.7,8a2.51,2.51,0,0,1-2,.9,3.75,3.75,0,0,1-1.1-.2A2.71,2.71,0,0,1,0,54V13.68A13.74,13.74,0,0,1,13.8,0ZM57.3,34.2V4.7H13.8a9,9,0,0,0-9,9V49.2l5.7-6H48.2a9,9,0,0,0,9-9Z"/></g></g></svg>