<svg xmlns="http://www.w3.org/2000/svg" viewBox="0 0 55.57 50.05"><defs><style>.cls-1{fill:#fbfdff;}</style></defs><title>Asset 5</title><g id="Layer_2" data-name="Layer 2"><g id="Layer_1-2" data-name="Layer 1"><path class="cls-1" d="M55.57,0H10.18A10.31,10.31,0,0,0,0,10.4V50.05l7.25-7.82h38a10.28,10.28,0,0,0,10.14-9.4m-25.24-9a24.64,24.64,0,0,0-.1,2.72,1.06,1.06,0,0,1-.21.73.91.91,0,0,1-.61.21H25.59c-.51,0-.72-.21-.72-.73a15.94,15.94,0,0,1,.72-5.86,8.17,8.17,0,0,1,2.55-2.71,8.44,8.44,0,0,0,1.94-1.88,2.54,2.54,0,0,0,.51-2.83,3.21,3.21,0,0,0-3-1.67,3.61,3.61,0,0,0-3.57,2.82c-.1.53-.21.94-.82.94a4.59,4.59,0,0,0-.51-.1c-1.12-.21-2.14-.31-3.16-.42a1.09,1.09,0,0,1-.92-.94c.41-4.7,4.9-7.21,9.08-7.21a9.31,9.31,0,0,1,6.33,2.2,7.21,7.21,0,0,1,2.45,5.22c0,2.82-2.15,4.81-4.09,6.48-.2.21-.4.31-.61.52l-.2.21A3.66,3.66,0,0,0,30.18,23.78Zm.51,9.93a3.14,3.14,0,0,1-.82,2.19,3.27,3.27,0,0,1-2.14.84,3,3,0,0,1-2.86-2.93,2.89,2.89,0,0,1,2.86-2.92A3,3,0,0,1,30.69,33.71Z"/></g></g></svg>