<svg xmlns="http://www.w3.org/2000/svg" viewBox="0 0 42.8 42.81"><defs><style>.cls-1{fill:#fbfdff;}</style></defs><title>Asset 6</title><g id="Layer_2" data-name="Layer 2"><g id="Layer_1-2" data-name="Layer 1"><path class="cls-1" d="M15,22.49a9.75,9.75,0,0,1,0,1.7H13.13a.29.29,0,0,0-.29.3V35.34a.31.31,0,0,1-.3.3h-1.4a.31.31,0,0,1-.3-.3V24.49a.29.29,0,0,0-.29-.3H9.06a.29.29,0,0,1-.29-.3V22.5a.29.29,0,0,1,.29-.29h5.66A.3.3,0,0,1,15,22.49Zm5.27,3.22h-1.2a.29.29,0,0,0-.3.29v7.27a1.59,1.59,0,0,1-1.13.85c-.48,0-.48-.37-.48-.37V26a.29.29,0,0,0-.3-.29h-1.2a.3.3,0,0,0-.3.29v7.93c0,1.23.39,1.89,1.43,1.89a2.4,2.4,0,0,0,1.48-.7.3.3,0,0,1,.5.22v.09a.29.29,0,0,0,.3.3h1.5V26A.3.3,0,0,0,20.29,25.71Zm7.2,1.6v6.62s-.19,1.89-1.32,1.89a2.52,2.52,0,0,1-1.68-.61.3.3,0,0,0-.5.22.29.29,0,0,1-.29.3H22.5a.29.29,0,0,1-.3-.3V22.6a.29.29,0,0,1,.3-.3h1.2a.29.29,0,0,1,.29.3v3.33a.3.3,0,0,0,.5.22,2.26,2.26,0,0,1,1.3-.64A1.66,1.66,0,0,1,27.49,27.31Zm-1.79,1c0-.66-.29-1-.76-1a1.29,1.29,0,0,0-.74.28.28.28,0,0,0-.11.23v5.9a.3.3,0,0,0,.08.21,1.26,1.26,0,0,0,.77.28c.76,0,.76-.85.76-.85ZM42.8,9.47V33.34a9.47,9.47,0,0,1-9.47,9.47H9.47A9.47,9.47,0,0,1,0,33.34V9.47A9.47,9.47,0,0,1,9.47,0H33.33A9.47,9.47,0,0,1,42.8,9.47Zm-18,5.64a1.31,1.31,0,0,0,1.41,1.5,2.59,2.59,0,0,0,1.48-.72.3.3,0,0,1,.49.22v.11a.3.3,0,0,0,.3.3H29.7a.29.29,0,0,0,.3-.3V6.87a.29.29,0,0,0-.3-.29H28.22v7.53a.31.31,0,0,1,0,.13,1.63,1.63,0,0,1-1,.76l-.1,0c-.6,0-.51-.47-.51-.47V6.87a.3.3,0,0,0-.3-.29H25.14a.3.3,0,0,0-.3.29ZM18.09,14a3.25,3.25,0,0,0,.47,1.5,2.41,2.41,0,0,0,1.85,1.1,4.13,4.13,0,0,0,.7,0,2.38,2.38,0,0,0,1.76-1.09,3.25,3.25,0,0,0,.47-1.5V9.3a8.44,8.44,0,0,0-.09-.91.13.13,0,0,0,0-.06,2.6,2.6,0,0,0-2.12-1.8,2.31,2.31,0,0,0-.83,0,2.6,2.6,0,0,0-2.1,1.8.43.43,0,0,1,0,.05,8.94,8.94,0,0,0-.09.92ZM11.27,3.59,13.67,11a.31.31,0,0,1,0,.1v5a.31.31,0,0,0,.3.3h1.28a.31.31,0,0,0,.3-.3v-5a.19.19,0,0,1,0-.08l2.31-7.45a.3.3,0,0,0-.29-.39H16.25a.29.29,0,0,0-.28.22L14.62,8.36,13.27,3.42A.29.29,0,0,0,13,3.2H11.56A.3.3,0,0,0,11.27,3.59ZM37,29.31v0c-.18-4.07.09-9.35-3.22-9.83-2.17-.38-4.63-.28-12.47-.38-5.3,0-8,.1-8.33.1-3.4.19-5.77-.28-6.62,3.4a41,41,0,0,0-.56,6.76C6,33.75,5.65,39,9.9,39.42c2.18.19,7.85.28,11.59.28,5.1,0,10.64-.09,12.53-.48a3.6,3.6,0,0,0,1.8-1.41C36.92,36.33,36.94,34.09,37,29.31Zm-2.62,3.21a8.65,8.65,0,0,1-.12,1.41C34,35.54,32.17,35.8,32,35.82h0A2.73,2.73,0,0,1,29,33V28.26a3.87,3.87,0,0,1,.19-1c.2-.56.38-1.7,2.65-1.7a2.48,2.48,0,0,1,2.55,2.65v2.45a.29.29,0,0,1-.29.29h-3a.3.3,0,0,0-.3.3V33a1,1,0,0,0,1,1.13c.76,0,.76-1.13.76-1.13v-.46a.29.29,0,0,1,.3-.3h1.22A.31.31,0,0,1,34.42,32.52ZM30.8,29.19a.3.3,0,0,0,.3.3h1.2a.31.31,0,0,0,.3-.3v-.93s-.1-1-.85-1-.95.85-.95,1ZM20.72,15s.84.09.84-1V9.3s.09-1.22-.84-1.22c0,0-.94-.1-.94,1.22V14C19.78,15.11,20.72,15,20.72,15Z"/></g></g></svg>