<svg xmlns="http://www.w3.org/2000/svg" viewBox="0 0 43.32 41.64"><defs><style>.cls-1{fill:#fbfdff;}</style></defs><title>Asset 3</title><g id="Layer_2" data-name="Layer 2"><g id="Layer_1-2" data-name="Layer 1"><path class="cls-1" d="M37.56,0H5.77A5.77,5.77,0,0,0,0,5.77V35.88a5.76,5.76,0,0,0,5.77,5.76H37.56a5.76,5.76,0,0,0,5.76-5.76V5.77A5.76,5.76,0,0,0,37.56,0ZM35.43,13.76c0,.3,0,.61,0,.92,0,9.39-7.14,20.22-20.21,20.22a20.11,20.11,0,0,1-10.9-3.2,13.62,13.62,0,0,0,1.7.1,14.21,14.21,0,0,0,8.82-3,7.12,7.12,0,0,1-6.64-4.93A7.42,7.42,0,0,0,9.56,24a6.76,6.76,0,0,0,1.87-.25,7.1,7.1,0,0,1-5.7-7v-.09A7.18,7.18,0,0,0,9,17.54a7.12,7.12,0,0,1-2.2-9.49A20.15,20.15,0,0,0,21.4,15.47a7.18,7.18,0,0,1-.18-1.62A7.11,7.11,0,0,1,33.51,9,14.3,14.3,0,0,0,38,7.27,7.1,7.1,0,0,1,34.9,11.2,14.25,14.25,0,0,0,39,10.08,14.44,14.44,0,0,1,35.43,13.76Z"/></g></g></svg>